<svg xmlns="http://www.w3.org/2000/svg" xmlns:xlink="http://www.w3.org/1999/xlink" width="500" zoomAndPan="magnify" viewBox="0 0 375 374.999991" height="500" preserveAspectRatio="xMidYMid meet" version="1.0"><defs><clipPath id="305fa6047e"><path d="M 1.210938 107 L 352 107 L 352 358.347656 L 1.210938 358.347656 Z M 1.210938 107 " clip-rule="nonzero"/></clipPath><clipPath id="12e18cabf6"><path d="M 283 200 L 373.960938 200 L 373.960938 266 L 283 266 Z M 283 200 " clip-rule="nonzero"/></clipPath></defs><rect x="-37.5" width="450" fill="#ffffff" y="-37.499999" height="449.999989" fill-opacity="1"/><rect x="-37.5" width="450" fill="#ffffff" y="-37.499999" height="449.999989" fill-opacity="1"/><g clip-path="url(#305fa6047e)"><path fill="#ccc14f" d="M 315.394531 358.230469 L 37.183594 358.230469 C 17.355469 358.230469 1.210938 342.101562 1.210938 322.257812 L 1.210938 143.9375 C 1.210938 124.113281 17.355469 107.964844 37.183594 107.964844 L 315.394531 107.964844 C 335.199219 107.964844 351.304688 124.113281 351.304688 143.9375 L 351.304688 205.394531 L 341.234375 205.394531 L 341.234375 143.9375 C 341.234375 129.65625 329.632812 118.035156 315.394531 118.035156 L 37.183594 118.035156 C 22.902344 118.035156 11.28125 129.65625 11.28125 143.9375 L 11.28125 322.257812 C 11.28125 336.535156 22.902344 348.160156 37.183594 348.160156 L 315.394531 348.160156 C 329.632812 348.160156 341.234375 336.535156 341.234375 322.257812 L 341.234375 260.796875 L 351.304688 260.796875 L 351.304688 322.257812 C 351.304688 342.101562 335.199219 358.230469 315.394531 358.230469 " fill-opacity="1" fill-rule="nonzero"/></g><g clip-path="url(#12e18cabf6)"><path fill="#ccc14f" d="M 298.242188 210.429688 C 295.527344 210.429688 293.328125 212.652344 293.328125 215.367188 L 293.328125 250.828125 C 293.328125 251.929688 293.679688 252.972656 294.367188 253.835938 C 295.332031 255.09375 296.710938 255.761719 298.242188 255.761719 L 358.835938 255.761719 C 361.53125 255.761719 363.714844 253.542969 363.714844 250.828125 L 363.714844 215.367188 C 363.714844 212.652344 361.53125 210.429688 358.835938 210.429688 Z M 358.835938 265.832031 L 298.242188 265.832031 C 293.601562 265.832031 289.292969 263.730469 286.441406 260.03125 C 284.398438 257.453125 283.257812 254.171875 283.257812 250.828125 L 283.257812 215.367188 C 283.257812 207.105469 289.984375 200.359375 298.242188 200.359375 L 358.835938 200.359375 C 367.078125 200.359375 373.785156 207.105469 373.785156 215.367188 L 373.785156 250.828125 C 373.785156 259.105469 367.078125 265.832031 358.835938 265.832031 " fill-opacity="1" fill-rule="nonzero"/></g><path fill="#ccc14f" d="M 328.511719 228.722656 C 326.113281 228.722656 324.144531 230.6875 324.144531 233.105469 C 324.144531 235.507812 326.113281 237.472656 328.511719 237.472656 C 330.929688 237.472656 332.898438 235.507812 332.898438 233.105469 C 332.898438 230.6875 330.929688 228.722656 328.511719 228.722656 Z M 328.511719 247.542969 C 320.546875 247.542969 314.074219 241.070312 314.074219 233.105469 C 314.074219 225.140625 320.546875 218.652344 328.511719 218.652344 C 336.476562 218.652344 342.964844 225.140625 342.964844 233.105469 C 342.964844 241.070312 336.476562 247.542969 328.511719 247.542969 " fill-opacity="1" fill-rule="nonzero"/><path fill="#ccc14f" d="M 75.21875 117.347656 L 70.066406 108.671875 L 208.050781 26.796875 C 225.121094 16.75 247.207031 22.414062 257.316406 39.425781 L 299.460938 110.441406 L 290.808594 115.574219 L 248.664062 44.558594 C 241.386719 32.304688 225.457031 28.234375 213.183594 35.472656 L 75.21875 117.347656 " fill-opacity="1" fill-rule="nonzero"/><path fill="#ccc14f" d="M 183.347656 117.347656 L 178.253906 108.652344 L 263.117188 58.972656 L 268.191406 67.667969 L 183.347656 117.347656 " fill-opacity="1" fill-rule="nonzero"/></svg>