<svg xmlns="http://www.w3.org/2000/svg" xmlns:xlink="http://www.w3.org/1999/xlink" width="500" zoomAndPan="magnify" viewBox="0 0 375 374.999991" height="500" preserveAspectRatio="xMidYMid meet" version="1.0"><defs><g/><clipPath id="eaa36de656"><path d="M 138.707031 121 L 231 121 L 231 187.847656 L 138.707031 187.847656 Z M 138.707031 121 " clip-rule="nonzero"/></clipPath><clipPath id="07356e2a57"><path d="M 212 146 L 236.207031 146 L 236.207031 164 L 212 164 Z M 212 146 " clip-rule="nonzero"/></clipPath></defs><rect x="-37.5" width="450" fill="#ffffff" y="-37.499999" height="449.999989" fill-opacity="1"/><rect x="-37.5" width="450" fill="#14162a" y="-37.499999" height="449.999989" fill-opacity="1"/><g clip-path="url(#eaa36de656)"><path fill="#ccc14f" d="M 220.996094 187.386719 L 148.128906 187.386719 C 142.9375 187.386719 138.707031 183.164062 138.707031 177.964844 L 138.707031 131.261719 C 138.707031 126.066406 142.9375 121.839844 148.128906 121.839844 L 220.996094 121.839844 C 226.183594 121.839844 230.402344 126.066406 230.402344 131.261719 L 230.402344 147.359375 L 227.765625 147.359375 L 227.765625 131.261719 C 227.765625 127.519531 224.726562 124.476562 220.996094 124.476562 L 148.128906 124.476562 C 144.390625 124.476562 141.347656 127.519531 141.347656 131.261719 L 141.347656 177.964844 C 141.347656 181.703125 144.390625 184.75 148.128906 184.75 L 220.996094 184.75 C 224.726562 184.75 227.765625 181.703125 227.765625 177.964844 L 227.765625 161.867188 L 230.402344 161.867188 L 230.402344 177.964844 C 230.402344 183.164062 226.183594 187.386719 220.996094 187.386719 " fill-opacity="1" fill-rule="nonzero"/></g><g clip-path="url(#07356e2a57)"><path fill="#ccc14f" d="M 216.503906 148.675781 C 215.792969 148.675781 215.21875 149.257812 215.21875 149.96875 L 215.21875 159.257812 C 215.21875 159.542969 215.308594 159.816406 215.492188 160.042969 C 215.742188 160.375 216.105469 160.550781 216.503906 160.550781 L 232.375 160.550781 C 233.082031 160.550781 233.652344 159.96875 233.652344 159.257812 L 233.652344 149.96875 C 233.652344 149.257812 233.082031 148.675781 232.375 148.675781 Z M 232.375 163.1875 L 216.503906 163.1875 C 215.289062 163.1875 214.160156 162.636719 213.414062 161.667969 C 212.878906 160.992188 212.582031 160.132812 212.582031 159.257812 L 212.582031 149.96875 C 212.582031 147.804688 214.34375 146.039062 216.503906 146.039062 L 232.375 146.039062 C 234.535156 146.039062 236.289062 147.804688 236.289062 149.96875 L 236.289062 159.257812 C 236.289062 161.425781 234.535156 163.1875 232.375 163.1875 " fill-opacity="1" fill-rule="nonzero"/></g><path fill="#ccc14f" d="M 224.433594 153.464844 C 223.804688 153.464844 223.289062 153.980469 223.289062 154.617188 C 223.289062 155.242188 223.804688 155.757812 224.433594 155.757812 C 225.066406 155.757812 225.582031 155.242188 225.582031 154.617188 C 225.582031 153.980469 225.066406 153.464844 224.433594 153.464844 Z M 224.433594 158.394531 C 222.347656 158.394531 220.652344 156.703125 220.652344 154.617188 C 220.652344 152.527344 222.347656 150.828125 224.433594 150.828125 C 226.519531 150.828125 228.21875 152.527344 228.21875 154.617188 C 228.21875 156.703125 226.519531 158.394531 224.433594 158.394531 " fill-opacity="1" fill-rule="nonzero"/><path fill="#ccc14f" d="M 158.09375 124.296875 L 156.742188 122.023438 L 192.882812 100.582031 C 197.355469 97.949219 203.136719 99.433594 205.785156 103.886719 L 216.824219 122.488281 L 214.558594 123.832031 L 203.519531 105.230469 C 201.613281 102.023438 197.441406 100.957031 194.226562 102.851562 L 158.09375 124.296875 " fill-opacity="1" fill-rule="nonzero"/><path fill="#ccc14f" d="M 186.414062 124.296875 L 185.078125 122.019531 L 207.304688 109.007812 L 208.632812 111.285156 L 186.414062 124.296875 " fill-opacity="1" fill-rule="nonzero"/><g fill="#f6eceb" fill-opacity="1"><g transform="translate(103.28434, 241.751029)"><g><path d="M 8.46875 -24.460938 C 8.46875 -24.496094 8.46875 -24.496094 8.46875 -24.496094 C 6.894531 -24.496094 5.355469 -24.496094 3.78125 -24.496094 C 3.429688 -24.496094 3.078125 -24.460938 2.730469 -24.460938 C 2.625 -24.460938 2.519531 -24.460938 2.414062 -24.425781 C 2.273438 -24.390625 2.132812 -24.320312 2.066406 -24.179688 C 2.03125 -24.078125 2.066406 -23.9375 2.132812 -23.902344 C 2.238281 -23.867188 2.34375 -23.796875 2.449219 -23.761719 C 2.519531 -23.726562 2.625 -23.726562 2.730469 -23.691406 C 2.871094 -23.691406 3.042969 -23.65625 3.183594 -23.65625 C 3.464844 -23.585938 3.675781 -23.410156 3.882812 -23.203125 C 3.917969 -23.132812 3.953125 -23.0625 3.953125 -22.992188 C 3.953125 -22.886719 3.988281 -22.78125 3.988281 -22.675781 C 3.988281 -21.871094 3.953125 -21.03125 3.988281 -20.226562 C 4.023438 -18.230469 3.988281 -16.238281 3.988281 -14.277344 C 3.988281 -11.128906 3.953125 -8.015625 3.953125 -4.898438 C 3.953125 -4.410156 3.917969 -3.953125 3.917969 -3.5 C 3.917969 -2.90625 3.847656 -2.308594 3.746094 -1.714844 C 3.710938 -1.574219 3.640625 -1.433594 3.535156 -1.328125 C 3.429688 -1.226562 3.289062 -1.085938 3.113281 -1.050781 C 2.90625 -0.945312 2.730469 -0.875 2.484375 -0.839844 C 2.132812 -0.769531 1.820312 -0.628906 1.46875 -0.558594 C 1.328125 -0.523438 1.226562 -0.421875 1.121094 -0.351562 C 1.050781 -0.316406 1.015625 -0.246094 1.015625 -0.175781 C 1.050781 -0.105469 1.085938 -0.0351562 1.15625 0 C 1.226562 0.0351562 1.292969 0.0703125 1.328125 0.0703125 C 1.679688 0.0703125 1.996094 0.0703125 2.308594 0.0703125 C 4.96875 0.0351562 7.628906 0.0351562 10.289062 0 C 10.394531 0 10.5 0 10.601562 0 C 10.847656 0 11.023438 -0.0703125 11.234375 -0.175781 C 11.269531 -0.175781 11.269531 -0.210938 11.304688 -0.246094 C 11.375 -0.28125 11.410156 -0.351562 11.339844 -0.421875 C 11.339844 -0.488281 11.269531 -0.523438 11.234375 -0.59375 C 10.917969 -0.664062 10.601562 -0.769531 10.289062 -0.839844 C 10.042969 -0.875 9.832031 -0.980469 9.589844 -1.085938 C 9.449219 -1.15625 9.308594 -1.261719 9.167969 -1.398438 C 9.097656 -1.46875 9.0625 -1.574219 9.027344 -1.679688 C 8.992188 -2.03125 8.992188 -2.378906 8.921875 -2.730469 C 8.890625 -3.78125 8.890625 -4.792969 8.921875 -5.84375 C 8.992188 -6.230469 8.992188 -6.613281 9.027344 -7 C 9.027344 -7.734375 9.027344 -8.46875 9.027344 -9.238281 C 9.027344 -9.414062 9.0625 -9.589844 9.0625 -9.761719 C 9.0625 -9.9375 9.203125 -10.078125 9.378906 -10.113281 C 9.554688 -10.148438 9.730469 -10.183594 9.902344 -10.183594 C 10.289062 -10.21875 10.636719 -10.21875 10.988281 -10.21875 C 11.199219 -10.21875 11.410156 -10.21875 11.617188 -10.289062 C 12.003906 -10.359375 12.386719 -10.394531 12.773438 -10.429688 C 12.949219 -10.464844 13.125 -10.464844 13.296875 -10.535156 C 13.507812 -10.570312 13.71875 -10.601562 13.929688 -10.636719 C 14.171875 -10.636719 14.417969 -10.671875 14.664062 -10.777344 C 14.835938 -10.8125 15.011719 -10.8125 15.1875 -10.847656 C 15.292969 -10.882812 15.398438 -10.882812 15.503906 -10.917969 C 16.238281 -11.128906 16.972656 -11.375 17.636719 -11.792969 C 18.6875 -12.492188 18.6875 -12.457031 19.457031 -13.261719 C 19.703125 -13.542969 19.914062 -13.824219 20.085938 -14.136719 C 20.367188 -14.628906 20.613281 -15.152344 20.820312 -15.679688 C 20.890625 -15.816406 20.960938 -15.992188 20.996094 -16.167969 C 21.03125 -16.414062 21.136719 -16.65625 21.136719 -16.902344 C 21.171875 -17.183594 21.171875 -17.460938 21.171875 -17.742188 C 21.171875 -17.917969 21.171875 -18.09375 21.171875 -18.265625 C 21.171875 -18.441406 21.136719 -18.617188 21.101562 -18.792969 C 21.066406 -19.003906 21.03125 -19.210938 20.996094 -19.421875 C 20.925781 -19.84375 20.785156 -20.261719 20.613281 -20.648438 C 20.542969 -20.753906 20.507812 -20.820312 20.4375 -20.925781 C 20.050781 -21.382812 19.667969 -21.835938 19.28125 -22.292969 C 19.105469 -22.5 18.933594 -22.675781 18.722656 -22.78125 C 18.476562 -22.921875 18.265625 -23.132812 18.023438 -23.273438 C 17.777344 -23.445312 17.53125 -23.585938 17.324219 -23.761719 C 17.113281 -23.867188 16.902344 -23.867188 16.691406 -23.972656 C 16.65625 -23.972656 16.65625 -23.972656 16.621094 -24.007812 C 16.378906 -24.078125 16.132812 -24.179688 15.921875 -24.25 C 15.679688 -24.320312 15.433594 -24.320312 15.152344 -24.320312 C 15.046875 -24.355469 14.941406 -24.355469 14.835938 -24.390625 C 14.628906 -24.460938 14.347656 -24.460938 14.101562 -24.460938 C 13.789062 -24.460938 13.472656 -24.460938 13.15625 -24.460938 C 11.582031 -24.460938 10.042969 -24.460938 8.46875 -24.460938 Z M 9.027344 -16.796875 C 9.027344 -17.566406 9.027344 -18.300781 9.027344 -19.039062 C 9.027344 -20.085938 9.0625 -21.101562 9.097656 -22.152344 C 9.097656 -22.222656 9.097656 -22.292969 9.132812 -22.363281 C 9.167969 -22.675781 9.34375 -22.957031 9.730469 -22.992188 C 9.832031 -22.992188 9.9375 -23.027344 10.042969 -23.027344 C 10.8125 -23.0625 11.617188 -23.0625 12.386719 -23.027344 C 12.492188 -22.992188 12.597656 -22.992188 12.703125 -22.957031 C 13.15625 -22.851562 13.578125 -22.710938 13.996094 -22.535156 C 14.136719 -22.5 14.242188 -22.398438 14.382812 -22.328125 C 14.734375 -21.976562 15.046875 -21.59375 15.328125 -21.171875 C 15.46875 -20.890625 15.609375 -20.613281 15.746094 -20.332031 C 15.921875 -19.84375 16.132812 -19.386719 16.132812 -18.898438 C 16.132812 -18.828125 16.132812 -18.757812 16.167969 -18.6875 C 16.273438 -18.265625 16.273438 -17.847656 16.203125 -17.425781 C 16.167969 -17.324219 16.132812 -17.21875 16.132812 -17.113281 C 16.167969 -16.519531 15.921875 -15.992188 15.710938 -15.46875 C 15.363281 -14.734375 14.976562 -13.996094 14.488281 -13.332031 C 14.136719 -12.808594 13.683594 -12.351562 13.089844 -12.039062 C 12.984375 -12.003906 12.878906 -11.898438 12.738281 -11.828125 C 12.144531 -11.511719 11.511719 -11.269531 10.8125 -11.234375 C 10.570312 -11.234375 10.324219 -11.234375 10.078125 -11.234375 C 9.832031 -11.199219 9.589844 -11.164062 9.34375 -11.128906 C 9.203125 -11.09375 9.0625 -11.269531 9.0625 -11.375 C 9.0625 -11.410156 9.0625 -11.445312 9.0625 -11.476562 C 9.0625 -11.546875 9.0625 -11.617188 9.0625 -11.6875 C 9.027344 -13.402344 9.027344 -15.117188 9.027344 -16.796875 Z M 9.027344 -16.796875 "/></g></g></g><g fill="#f6eceb" fill-opacity="1"><g transform="translate(129.669379, 241.751029)"><g><path d="M 3.464844 -1.085938 C 2.90625 -0.875 2.308594 -0.769531 1.714844 -0.628906 C 1.539062 -0.558594 1.292969 -0.59375 1.085938 -0.558594 C 0.910156 -0.523438 0.769531 -0.453125 0.628906 -0.316406 C 0.558594 -0.28125 0.523438 -0.210938 0.558594 -0.140625 C 0.59375 -0.0703125 0.628906 -0.0351562 0.699219 0 C 0.769531 0 0.839844 0.0351562 0.910156 0.0351562 C 1.191406 0.0351562 1.503906 0.0351562 1.785156 0.0351562 C 4.621094 0.0351562 7.453125 0.0351562 10.289062 0.0351562 C 10.535156 0.0351562 10.8125 0 11.058594 0 C 11.128906 0 11.164062 -0.0351562 11.234375 -0.0351562 C 11.375 -0.0703125 11.445312 -0.28125 11.375 -0.386719 C 11.304688 -0.488281 11.234375 -0.558594 11.128906 -0.558594 C 10.601562 -0.628906 10.113281 -0.59375 9.625 -0.734375 C 9.484375 -0.769531 9.34375 -0.734375 9.203125 -0.769531 C 8.921875 -0.769531 8.644531 -0.769531 8.363281 -0.769531 C 8.1875 -0.804688 8.015625 -0.804688 7.839844 -0.875 C 7.558594 -0.980469 7.277344 -0.980469 7.035156 -1.121094 C 6.929688 -1.15625 6.824219 -1.226562 6.753906 -1.261719 C 6.472656 -1.46875 6.300781 -1.714844 6.300781 -2.066406 C 6.300781 -2.308594 6.300781 -2.554688 6.402344 -2.800781 C 6.507812 -3.183594 6.613281 -3.570312 6.683594 -3.953125 C 6.753906 -4.269531 6.859375 -4.550781 6.929688 -4.863281 C 7 -5.109375 7.105469 -5.320312 7.175781 -5.5625 C 7.242188 -5.84375 7.3125 -6.125 7.453125 -6.367188 C 7.523438 -6.613281 7.523438 -6.859375 7.628906 -7.105469 C 7.664062 -7.175781 7.699219 -7.207031 7.769531 -7.242188 C 7.875 -7.3125 7.945312 -7.347656 8.050781 -7.347656 C 8.539062 -7.417969 8.992188 -7.417969 9.449219 -7.417969 C 9.972656 -7.417969 10.5 -7.453125 11.023438 -7.523438 C 11.234375 -7.59375 11.476562 -7.59375 11.6875 -7.59375 C 13.089844 -7.628906 14.523438 -7.699219 15.921875 -7.699219 C 16.238281 -7.699219 16.585938 -7.699219 16.902344 -7.769531 C 16.972656 -7.769531 17.042969 -7.769531 17.113281 -7.769531 C 17.289062 -7.769531 17.460938 -7.699219 17.566406 -7.558594 C 17.742188 -7.3125 17.882812 -7.070312 17.953125 -6.789062 C 18.199219 -6.054688 18.511719 -5.355469 18.757812 -4.585938 C 18.792969 -4.480469 18.828125 -4.339844 18.863281 -4.199219 C 18.933594 -3.816406 19.039062 -3.429688 19.175781 -3.042969 C 19.351562 -2.589844 19.457031 -2.101562 19.667969 -1.644531 C 19.703125 -1.539062 19.667969 -1.433594 19.632812 -1.363281 C 19.5625 -1.261719 19.527344 -1.15625 19.421875 -1.085938 C 19.246094 -0.980469 19.074219 -0.839844 18.863281 -0.804688 C 18.441406 -0.769531 18.023438 -0.628906 17.601562 -0.59375 C 17.53125 -0.59375 17.460938 -0.558594 17.390625 -0.558594 C 17.148438 -0.488281 17.113281 -0.175781 17.21875 -0.0351562 C 17.324219 0.105469 17.425781 0.140625 17.566406 0.210938 C 18.128906 0.246094 18.722656 0.246094 19.28125 0.175781 C 19.914062 0.105469 20.542969 0.105469 21.171875 0.0703125 C 22.921875 0.0703125 24.671875 0.0703125 26.421875 0.0351562 C 26.527344 0.0351562 26.632812 0.0351562 26.734375 0.0351562 C 26.945312 0.0351562 27.121094 -0.140625 27.191406 -0.351562 C 27.261719 -0.488281 27.15625 -0.734375 26.980469 -0.769531 C 26.734375 -0.839844 26.457031 -0.980469 26.175781 -0.980469 C 25.929688 -1.015625 25.6875 -1.121094 25.476562 -1.191406 C 25.160156 -1.292969 24.988281 -1.503906 24.847656 -1.785156 C 24.8125 -1.855469 24.777344 -1.960938 24.742188 -2.066406 C 24.355469 -3.007812 23.972656 -3.988281 23.691406 -4.96875 C 23.585938 -5.355469 23.445312 -5.703125 23.273438 -6.054688 C 23.203125 -6.230469 23.132812 -6.402344 23.097656 -6.542969 C 22.78125 -7.3125 22.464844 -8.082031 22.117188 -8.820312 C 21.941406 -9.132812 21.800781 -9.449219 21.660156 -9.761719 C 21.523438 -10.148438 21.347656 -10.5 21.242188 -10.847656 C 21.136719 -11.199219 20.960938 -11.511719 20.820312 -11.828125 C 20.820312 -11.863281 20.820312 -11.898438 20.785156 -11.933594 C 20.648438 -12.421875 20.507812 -12.878906 20.367188 -13.367188 C 20.050781 -14.382812 19.738281 -15.398438 19.28125 -16.378906 C 19.074219 -16.867188 18.863281 -17.359375 18.6875 -17.847656 C 18.652344 -18.023438 18.582031 -18.199219 18.511719 -18.335938 C 18.230469 -19.140625 17.882812 -19.945312 17.636719 -20.753906 C 17.53125 -21.101562 17.390625 -21.417969 17.253906 -21.730469 C 17.078125 -22.082031 16.972656 -22.464844 16.761719 -22.816406 C 16.585938 -23.0625 16.519531 -23.410156 16.378906 -23.65625 C 16.167969 -24.007812 15.886719 -24.214844 15.539062 -24.285156 C 15.433594 -24.285156 15.328125 -24.285156 15.222656 -24.285156 C 14.699219 -24.320312 14.207031 -24.320312 13.71875 -24.390625 C 13.542969 -24.425781 13.367188 -24.425781 13.191406 -24.425781 C 12.5625 -24.425781 11.898438 -24.460938 11.269531 -24.460938 C 11.023438 -24.460938 10.777344 -24.460938 10.535156 -24.390625 C 10.359375 -24.320312 10.183594 -24.320312 10.007812 -24.320312 C 9.589844 -24.285156 9.167969 -24.25 8.714844 -24.25 C 8.609375 -24.214844 8.503906 -24.214844 8.398438 -24.179688 C 8.363281 -24.179688 8.292969 -24.113281 8.257812 -24.078125 C 8.1875 -24.007812 8.152344 -23.832031 8.222656 -23.761719 C 8.257812 -23.726562 8.328125 -23.65625 8.363281 -23.65625 C 8.574219 -23.621094 8.820312 -23.621094 9.027344 -23.621094 C 9.34375 -23.621094 9.660156 -23.621094 9.972656 -23.621094 C 10.183594 -23.585938 10.359375 -23.410156 10.394531 -23.203125 C 10.394531 -23.0625 10.394531 -22.957031 10.394531 -22.851562 C 10.394531 -22.570312 10.324219 -22.292969 10.289062 -22.011719 C 10.183594 -21.660156 10.113281 -21.347656 10.007812 -20.996094 C 9.902344 -20.683594 9.867188 -20.367188 9.730469 -20.085938 C 9.660156 -19.773438 9.589844 -19.457031 9.519531 -19.140625 C 9.414062 -18.6875 9.273438 -18.265625 9.132812 -17.8125 C 8.921875 -17.21875 8.714844 -16.621094 8.539062 -15.992188 C 8.257812 -14.976562 7.980469 -13.964844 7.628906 -12.949219 C 7.628906 -12.878906 7.59375 -12.808594 7.59375 -12.738281 C 7.558594 -12.316406 7.382812 -11.96875 7.277344 -11.582031 C 7.140625 -11.128906 7 -10.636719 6.859375 -10.183594 C 6.71875 -9.730469 6.578125 -9.308594 6.472656 -8.855469 C 6.472656 -8.75 6.4375 -8.644531 6.402344 -8.539062 C 6.300781 -8.292969 6.230469 -8.082031 6.160156 -7.839844 C 5.597656 -6.195312 5.074219 -4.515625 4.515625 -2.871094 C 4.410156 -2.554688 4.304688 -2.203125 4.164062 -1.855469 C 4.128906 -1.714844 4.023438 -1.574219 3.882812 -1.433594 C 3.78125 -1.292969 3.640625 -1.191406 3.464844 -1.085938 Z M 11.617188 -8.644531 C 10.535156 -8.644531 9.589844 -8.644531 8.644531 -8.644531 C 8.539062 -8.644531 8.433594 -8.644531 8.328125 -8.714844 C 8.257812 -8.75 8.1875 -8.785156 8.222656 -8.855469 C 8.222656 -8.957031 8.222656 -9.097656 8.257812 -9.167969 C 8.644531 -9.972656 8.855469 -10.847656 9.0625 -11.6875 C 9.238281 -12.421875 9.449219 -13.15625 9.660156 -13.859375 C 9.972656 -14.769531 10.253906 -15.679688 10.601562 -16.550781 C 10.777344 -16.902344 10.8125 -17.289062 10.953125 -17.671875 C 11.023438 -17.917969 11.09375 -18.164062 11.164062 -18.371094 C 11.199219 -18.546875 11.269531 -18.722656 11.339844 -18.863281 C 11.476562 -19.140625 11.546875 -19.386719 11.617188 -19.667969 C 11.722656 -20.050781 11.792969 -20.4375 11.933594 -20.820312 C 11.933594 -20.855469 12.003906 -20.925781 12.074219 -20.960938 C 12.109375 -20.996094 12.179688 -20.996094 12.25 -20.890625 C 12.285156 -20.820312 12.351562 -20.71875 12.386719 -20.613281 C 12.492188 -20.367188 12.597656 -20.121094 12.667969 -19.84375 C 12.773438 -19.527344 12.84375 -19.210938 12.949219 -18.898438 C 13.054688 -18.511719 13.191406 -18.09375 13.332031 -17.707031 C 13.507812 -17.289062 13.71875 -16.867188 13.929688 -16.449219 C 14.03125 -16.203125 14.171875 -15.921875 14.277344 -15.679688 C 14.347656 -15.503906 14.453125 -15.363281 14.523438 -15.1875 C 14.699219 -14.59375 15.011719 -14.03125 15.292969 -13.4375 C 15.46875 -12.984375 15.679688 -12.5625 15.886719 -12.074219 C 15.957031 -11.898438 16.027344 -11.6875 16.097656 -11.476562 C 16.273438 -10.8125 16.550781 -10.148438 16.832031 -9.519531 C 16.902344 -9.378906 16.972656 -9.273438 17.042969 -9.132812 C 17.078125 -9.027344 17.007812 -8.921875 16.902344 -8.890625 C 16.691406 -8.890625 16.484375 -8.890625 16.273438 -8.890625 C 15.816406 -8.890625 15.363281 -8.855469 14.90625 -8.785156 C 14.769531 -8.75 14.628906 -8.75 14.488281 -8.75 C 13.472656 -8.714844 12.492188 -8.644531 11.617188 -8.644531 Z M 11.617188 -8.644531 "/></g></g></g><g fill="#f6eceb" fill-opacity="1"><g transform="translate(162.178036, 241.751029)"><g><path d="M 9.695312 -11.792969 C 9.796875 -11.128906 9.761719 -10.570312 9.902344 -10.007812 C 9.902344 -9.9375 9.902344 -9.867188 9.902344 -9.796875 C 9.902344 -8.679688 9.9375 -7.59375 9.9375 -6.472656 C 9.9375 -5.179688 9.9375 -3.847656 9.972656 -2.554688 C 10.007812 -2.34375 9.972656 -2.101562 9.972656 -1.890625 C 9.972656 -1.820312 9.9375 -1.75 9.902344 -1.714844 C 9.796875 -1.433594 9.589844 -1.226562 9.308594 -1.121094 C 9.238281 -1.085938 9.132812 -1.050781 9.027344 -1.015625 C 8.75 -0.945312 8.46875 -0.875 8.1875 -0.804688 C 8.015625 -0.734375 7.769531 -0.488281 7.804688 -0.210938 C 7.839844 -0.140625 7.839844 -0.0703125 7.910156 -0.0351562 C 7.945312 -0.0351562 7.980469 0 8.015625 0 C 8.292969 0.0351562 8.574219 0.0351562 8.855469 0.0351562 C 11.339844 0.0351562 13.824219 0.0351562 16.308594 0 C 16.378906 0 16.449219 0 16.519531 0 C 16.65625 0 16.726562 -0.0703125 16.761719 -0.175781 C 16.867188 -0.351562 16.832031 -0.558594 16.726562 -0.664062 C 16.65625 -0.734375 16.621094 -0.769531 16.550781 -0.769531 C 15.992188 -0.875 15.539062 -1.085938 15.082031 -1.363281 C 14.835938 -1.503906 14.699219 -1.714844 14.699219 -1.996094 C 14.699219 -2.132812 14.664062 -2.273438 14.664062 -2.414062 C 14.664062 -4.058594 14.628906 -5.667969 14.628906 -7.3125 C 14.59375 -8.1875 14.59375 -9.097656 14.664062 -9.972656 C 14.699219 -10.289062 14.664062 -10.601562 14.699219 -10.953125 C 14.699219 -11.582031 14.699219 -12.214844 14.699219 -12.84375 C 14.699219 -13.753906 14.628906 -13.542969 15.046875 -14.277344 C 15.117188 -14.382812 15.1875 -14.523438 15.257812 -14.628906 C 15.328125 -14.804688 15.433594 -14.941406 15.539062 -15.082031 C 15.816406 -15.433594 16.027344 -15.78125 16.238281 -16.167969 C 16.378906 -16.414062 16.484375 -16.65625 16.621094 -16.902344 C 16.902344 -17.390625 17.148438 -17.847656 17.425781 -18.300781 C 17.566406 -18.546875 17.777344 -18.757812 17.917969 -19.003906 C 17.988281 -19.074219 18.058594 -19.175781 18.09375 -19.246094 C 18.335938 -19.703125 18.652344 -20.085938 18.933594 -20.472656 C 19.316406 -20.925781 19.667969 -21.382812 20.015625 -21.800781 C 20.226562 -22.082031 20.472656 -22.363281 20.71875 -22.605469 C 20.855469 -22.746094 20.996094 -22.851562 21.136719 -22.957031 C 21.695312 -23.308594 22.328125 -23.585938 22.992188 -23.65625 C 23.238281 -23.691406 23.410156 -23.796875 23.585938 -23.902344 C 23.621094 -23.972656 23.65625 -24.042969 23.691406 -24.078125 C 23.761719 -24.179688 23.726562 -24.214844 23.65625 -24.25 C 23.585938 -24.285156 23.515625 -24.320312 23.445312 -24.320312 C 22.816406 -24.355469 22.1875 -24.355469 21.523438 -24.320312 C 20.472656 -24.285156 19.386719 -24.285156 18.335938 -24.320312 C 18.09375 -24.355469 17.847656 -24.355469 17.601562 -24.425781 C 17.289062 -24.496094 16.972656 -24.496094 16.65625 -24.496094 C 16.132812 -24.496094 15.644531 -24.460938 15.152344 -24.460938 C 15.046875 -24.460938 14.941406 -24.425781 14.835938 -24.390625 C 14.734375 -24.355469 14.699219 -24.25 14.628906 -24.148438 C 14.59375 -24.078125 14.699219 -23.902344 14.769531 -23.902344 C 15.152344 -23.796875 15.539062 -23.691406 15.921875 -23.65625 C 16.34375 -23.65625 16.761719 -23.585938 17.183594 -23.480469 C 17.289062 -23.445312 17.390625 -23.410156 17.460938 -23.375 C 17.636719 -23.308594 17.777344 -23.167969 17.882812 -23.0625 C 18.164062 -22.746094 18.199219 -22.363281 18.023438 -22.046875 C 17.988281 -21.941406 17.917969 -21.871094 17.882812 -21.765625 C 17.53125 -21.171875 17.148438 -20.648438 16.761719 -20.085938 C 16.621094 -19.914062 16.484375 -19.773438 16.378906 -19.5625 C 15.957031 -18.828125 15.433594 -18.164062 14.941406 -17.460938 C 14.523438 -16.867188 14.101562 -16.308594 13.683594 -15.746094 C 13.613281 -15.710938 13.578125 -15.644531 13.507812 -15.609375 C 13.4375 -15.539062 13.296875 -15.539062 13.226562 -15.644531 C 13.019531 -15.957031 12.773438 -16.273438 12.5625 -16.585938 C 12.109375 -17.289062 11.722656 -17.988281 11.339844 -18.722656 C 11.234375 -18.898438 11.164062 -19.105469 11.023438 -19.28125 C 10.671875 -19.773438 10.429688 -20.332031 10.113281 -20.820312 C 10.078125 -20.890625 10.042969 -20.960938 10.007812 -21.03125 C 9.902344 -21.417969 9.730469 -21.730469 9.589844 -22.117188 C 9.519531 -22.328125 9.519531 -22.535156 9.625 -22.746094 C 9.660156 -22.851562 9.695312 -22.921875 9.761719 -23.027344 C 9.867188 -23.238281 10.042969 -23.410156 10.289062 -23.480469 C 10.5 -23.585938 10.707031 -23.65625 10.917969 -23.65625 C 11.058594 -23.691406 11.199219 -23.691406 11.339844 -23.726562 C 11.445312 -23.761719 11.511719 -23.796875 11.582031 -23.902344 C 11.6875 -24.007812 11.652344 -24.179688 11.511719 -24.25 C 11.445312 -24.320312 11.339844 -24.355469 11.234375 -24.355469 C 10.535156 -24.355469 9.867188 -24.355469 9.203125 -24.355469 C 8.503906 -24.320312 7.769531 -24.320312 7.070312 -24.320312 C 6.648438 -24.285156 6.230469 -24.285156 5.808594 -24.390625 C 5.496094 -24.425781 5.144531 -24.460938 4.828125 -24.460938 C 3.675781 -24.53125 2.484375 -24.496094 1.328125 -24.496094 C 1.226562 -24.496094 1.121094 -24.460938 1.015625 -24.460938 C 0.875 -24.425781 0.734375 -24.355469 0.628906 -24.25 C 0.558594 -24.148438 0.523438 -23.972656 0.59375 -23.832031 C 0.628906 -23.726562 0.699219 -23.691406 0.804688 -23.65625 C 1.191406 -23.621094 1.574219 -23.585938 1.960938 -23.480469 C 2.203125 -23.410156 2.449219 -23.308594 2.625 -23.167969 C 3.007812 -22.921875 3.289062 -22.605469 3.535156 -22.257812 C 3.953125 -21.59375 4.375 -20.960938 4.792969 -20.261719 C 5.285156 -19.457031 5.773438 -18.617188 6.230469 -17.777344 C 6.472656 -17.359375 6.71875 -16.9375 7 -16.519531 C 7.3125 -16.027344 7.664062 -15.609375 7.875 -15.046875 C 7.910156 -15.011719 7.910156 -15.011719 7.945312 -14.976562 C 8.152344 -14.664062 8.328125 -14.277344 8.539062 -13.964844 C 8.992188 -13.296875 9.308594 -12.527344 9.695312 -11.792969 Z M 9.695312 -11.792969 "/></g></g></g><g fill="#f6eceb" fill-opacity="1"><g transform="translate(191.187479, 241.751029)"><g><path d="M 8.539062 -0.175781 C 8.609375 -0.175781 8.714844 -0.140625 8.820312 -0.105469 C 9.203125 0 9.589844 0.0351562 9.972656 0.0703125 C 10.21875 0.0703125 10.464844 0.105469 10.707031 0.140625 C 12.003906 0.386719 13.261719 0.386719 14.558594 0.28125 C 14.90625 0.246094 15.257812 0.175781 15.609375 0.105469 C 16.167969 0.0703125 16.726562 -0.105469 17.289062 -0.175781 C 17.425781 -0.175781 17.566406 -0.246094 17.671875 -0.28125 C 18.722656 -0.59375 19.667969 -1.085938 20.542969 -1.644531 C 20.613281 -1.714844 20.683594 -1.75 20.71875 -1.785156 C 20.820312 -1.855469 20.855469 -1.960938 20.890625 -2.066406 C 20.890625 -2.203125 20.890625 -2.34375 20.890625 -2.484375 C 20.890625 -3.359375 20.890625 -4.199219 20.890625 -5.039062 C 20.890625 -5.390625 20.925781 -5.703125 21.03125 -5.984375 C 21.101562 -6.160156 21.101562 -6.335938 21.101562 -6.507812 C 21.101562 -6.648438 21.03125 -6.71875 20.925781 -6.753906 C 20.820312 -6.824219 20.71875 -6.753906 20.613281 -6.71875 C 20.472656 -6.613281 20.367188 -6.472656 20.296875 -6.300781 C 20.191406 -6.125 20.085938 -5.914062 20.015625 -5.703125 C 19.945312 -5.460938 19.84375 -5.179688 19.773438 -4.898438 C 19.597656 -4.410156 19.421875 -3.882812 19.175781 -3.429688 C 19.039062 -3.183594 18.863281 -2.941406 18.6875 -2.730469 C 18.40625 -2.414062 18.09375 -2.132812 17.742188 -1.855469 C 17.425781 -1.644531 17.078125 -1.433594 16.726562 -1.292969 C 16.484375 -1.191406 16.238281 -1.121094 15.992188 -1.050781 C 15.679688 -0.980469 15.328125 -0.910156 14.976562 -0.839844 C 14.90625 -0.839844 14.835938 -0.839844 14.769531 -0.839844 C 14.136719 -0.804688 13.542969 -0.804688 12.949219 -0.875 C 12.457031 -0.910156 11.96875 -0.980469 11.445312 -1.015625 C 11.339844 -1.015625 11.234375 -1.015625 11.128906 -1.050781 C 10.429688 -1.292969 9.761719 -1.609375 9.132812 -2.03125 C 9.027344 -2.066406 8.957031 -2.132812 8.890625 -2.203125 C 8.574219 -2.484375 8.328125 -2.765625 8.152344 -3.113281 C 7.910156 -3.675781 7.59375 -4.199219 7.277344 -4.6875 C 7.070312 -5.003906 6.929688 -5.320312 6.789062 -5.632812 C 6.683594 -5.878906 6.578125 -6.089844 6.578125 -6.367188 C 6.542969 -6.753906 6.367188 -7.105469 6.335938 -7.523438 C 6.300781 -7.910156 6.195312 -8.257812 6.089844 -8.644531 C 5.984375 -9.097656 5.914062 -9.554688 5.914062 -10.007812 C 5.914062 -10.636719 5.914062 -11.234375 5.914062 -11.828125 C 5.914062 -12.179688 5.914062 -12.527344 5.984375 -12.878906 C 6.089844 -13.402344 6.089844 -13.894531 6.089844 -14.382812 C 6.125 -14.941406 6.125 -15.503906 6.300781 -16.0625 C 6.300781 -16.097656 6.300781 -16.132812 6.335938 -16.167969 C 6.335938 -16.621094 6.472656 -17.007812 6.613281 -17.425781 C 6.894531 -18.164062 7.140625 -18.898438 7.558594 -19.632812 C 7.734375 -19.878906 7.945312 -20.15625 8.152344 -20.4375 C 8.503906 -20.925781 8.890625 -21.382812 9.414062 -21.730469 C 9.554688 -21.835938 9.660156 -21.941406 9.832031 -22.046875 C 10.289062 -22.433594 10.777344 -22.78125 11.339844 -23.027344 C 11.96875 -23.308594 12.492188 -23.445312 12.984375 -23.480469 C 13.4375 -23.480469 13.894531 -23.515625 14.347656 -23.445312 C 14.941406 -23.375 14.941406 -23.375 15.609375 -23.203125 C 15.886719 -23.132812 16.132812 -22.992188 16.414062 -22.921875 C 16.691406 -22.851562 16.972656 -22.746094 17.183594 -22.605469 C 17.53125 -22.363281 17.917969 -22.117188 18.230469 -21.871094 C 18.511719 -21.660156 18.757812 -21.382812 18.96875 -21.066406 C 19.210938 -20.648438 19.457031 -20.226562 19.703125 -19.773438 C 19.914062 -19.386719 20.085938 -18.933594 20.191406 -18.476562 C 20.261719 -18.265625 20.367188 -18.023438 20.4375 -17.777344 C 20.4375 -17.707031 20.507812 -17.671875 20.507812 -17.601562 C 20.578125 -17.496094 20.785156 -17.425781 20.890625 -17.496094 C 21.03125 -17.566406 21.101562 -17.707031 21.101562 -17.847656 C 21.101562 -18.335938 21.066406 -18.828125 20.960938 -19.316406 C 20.925781 -19.527344 20.890625 -19.738281 20.855469 -19.945312 C 20.855469 -20.121094 20.820312 -20.332031 20.785156 -20.472656 C 20.683594 -20.855469 20.683594 -21.242188 20.648438 -21.660156 C 20.648438 -21.90625 20.648438 -22.152344 20.613281 -22.398438 C 20.613281 -22.570312 20.578125 -22.746094 20.507812 -22.921875 C 20.402344 -23.097656 20.261719 -23.273438 20.085938 -23.375 C 19.667969 -23.726562 19.175781 -23.902344 18.652344 -24.042969 C 18.476562 -24.078125 18.300781 -24.078125 18.128906 -24.148438 C 17.847656 -24.214844 17.566406 -24.25 17.289062 -24.25 C 17.007812 -24.285156 16.726562 -24.285156 16.449219 -24.285156 C 15.921875 -24.285156 15.433594 -24.285156 14.941406 -24.320312 C 14.59375 -24.320312 14.242188 -24.285156 13.894531 -24.425781 C 13.859375 -24.425781 13.824219 -24.425781 13.789062 -24.425781 C 13.191406 -24.460938 12.632812 -24.496094 12.074219 -24.355469 C 11.757812 -24.285156 11.445312 -24.285156 11.128906 -24.214844 C 10.847656 -24.113281 10.601562 -24.042969 10.324219 -24.007812 C 10.042969 -23.972656 9.761719 -23.867188 9.484375 -23.832031 C 9.34375 -23.832031 9.203125 -23.761719 9.0625 -23.726562 C 8.820312 -23.585938 8.539062 -23.480469 8.292969 -23.339844 C 7.699219 -23.027344 7.140625 -22.675781 6.542969 -22.363281 C 6.125 -22.152344 5.738281 -21.871094 5.355469 -21.625 C 5.25 -21.558594 5.109375 -21.453125 5.039062 -21.347656 C 4.621094 -20.960938 4.234375 -20.578125 3.816406 -20.15625 C 3.535156 -19.878906 3.359375 -19.527344 3.078125 -19.246094 C 2.730469 -18.828125 2.484375 -18.335938 2.273438 -17.882812 C 2.101562 -17.566406 1.960938 -17.21875 1.820312 -16.902344 C 1.785156 -16.761719 1.714844 -16.621094 1.679688 -16.484375 C 1.644531 -16.167969 1.503906 -15.886719 1.433594 -15.574219 C 1.328125 -15.117188 1.226562 -14.664062 1.226562 -14.207031 C 1.191406 -13.996094 1.15625 -13.789062 1.121094 -13.578125 C 1.050781 -13.261719 1.050781 -12.949219 1.050781 -12.632812 C 1.015625 -11.933594 1.015625 -11.269531 1.085938 -10.601562 C 1.085938 -10.148438 1.15625 -9.695312 1.226562 -9.238281 C 1.292969 -8.957031 1.398438 -8.679688 1.46875 -8.398438 C 1.574219 -7.945312 1.785156 -7.558594 1.960938 -7.105469 C 2.03125 -6.859375 2.132812 -6.648438 2.273438 -6.4375 C 2.519531 -6.019531 2.765625 -5.5625 3.007812 -5.144531 C 3.113281 -4.933594 3.253906 -4.6875 3.394531 -4.515625 C 3.710938 -4.164062 3.953125 -3.78125 4.199219 -3.394531 C 4.304688 -3.253906 4.375 -3.148438 4.445312 -3.042969 C 5.320312 -2.03125 6.335938 -1.191406 7.558594 -0.628906 C 7.875 -0.488281 8.1875 -0.351562 8.539062 -0.175781 Z M 8.539062 -0.175781 "/></g></g></g><g fill="#f6eceb" fill-opacity="1"><g transform="translate(218.34235, 241.751029)"><g><path d="M 3.464844 -1.085938 C 2.90625 -0.875 2.308594 -0.769531 1.714844 -0.628906 C 1.539062 -0.558594 1.292969 -0.59375 1.085938 -0.558594 C 0.910156 -0.523438 0.769531 -0.453125 0.628906 -0.316406 C 0.558594 -0.28125 0.523438 -0.210938 0.558594 -0.140625 C 0.59375 -0.0703125 0.628906 -0.0351562 0.699219 0 C 0.769531 0 0.839844 0.0351562 0.910156 0.0351562 C 1.191406 0.0351562 1.503906 0.0351562 1.785156 0.0351562 C 4.621094 0.0351562 7.453125 0.0351562 10.289062 0.0351562 C 10.535156 0.0351562 10.8125 0 11.058594 0 C 11.128906 0 11.164062 -0.0351562 11.234375 -0.0351562 C 11.375 -0.0703125 11.445312 -0.28125 11.375 -0.386719 C 11.304688 -0.488281 11.234375 -0.558594 11.128906 -0.558594 C 10.601562 -0.628906 10.113281 -0.59375 9.625 -0.734375 C 9.484375 -0.769531 9.34375 -0.734375 9.203125 -0.769531 C 8.921875 -0.769531 8.644531 -0.769531 8.363281 -0.769531 C 8.1875 -0.804688 8.015625 -0.804688 7.839844 -0.875 C 7.558594 -0.980469 7.277344 -0.980469 7.035156 -1.121094 C 6.929688 -1.15625 6.824219 -1.226562 6.753906 -1.261719 C 6.472656 -1.46875 6.300781 -1.714844 6.300781 -2.066406 C 6.300781 -2.308594 6.300781 -2.554688 6.402344 -2.800781 C 6.507812 -3.183594 6.613281 -3.570312 6.683594 -3.953125 C 6.753906 -4.269531 6.859375 -4.550781 6.929688 -4.863281 C 7 -5.109375 7.105469 -5.320312 7.175781 -5.5625 C 7.242188 -5.84375 7.3125 -6.125 7.453125 -6.367188 C 7.523438 -6.613281 7.523438 -6.859375 7.628906 -7.105469 C 7.664062 -7.175781 7.699219 -7.207031 7.769531 -7.242188 C 7.875 -7.3125 7.945312 -7.347656 8.050781 -7.347656 C 8.539062 -7.417969 8.992188 -7.417969 9.449219 -7.417969 C 9.972656 -7.417969 10.5 -7.453125 11.023438 -7.523438 C 11.234375 -7.59375 11.476562 -7.59375 11.6875 -7.59375 C 13.089844 -7.628906 14.523438 -7.699219 15.921875 -7.699219 C 16.238281 -7.699219 16.585938 -7.699219 16.902344 -7.769531 C 16.972656 -7.769531 17.042969 -7.769531 17.113281 -7.769531 C 17.289062 -7.769531 17.460938 -7.699219 17.566406 -7.558594 C 17.742188 -7.3125 17.882812 -7.070312 17.953125 -6.789062 C 18.199219 -6.054688 18.511719 -5.355469 18.757812 -4.585938 C 18.792969 -4.480469 18.828125 -4.339844 18.863281 -4.199219 C 18.933594 -3.816406 19.039062 -3.429688 19.175781 -3.042969 C 19.351562 -2.589844 19.457031 -2.101562 19.667969 -1.644531 C 19.703125 -1.539062 19.667969 -1.433594 19.632812 -1.363281 C 19.5625 -1.261719 19.527344 -1.15625 19.421875 -1.085938 C 19.246094 -0.980469 19.074219 -0.839844 18.863281 -0.804688 C 18.441406 -0.769531 18.023438 -0.628906 17.601562 -0.59375 C 17.53125 -0.59375 17.460938 -0.558594 17.390625 -0.558594 C 17.148438 -0.488281 17.113281 -0.175781 17.21875 -0.0351562 C 17.324219 0.105469 17.425781 0.140625 17.566406 0.210938 C 18.128906 0.246094 18.722656 0.246094 19.28125 0.175781 C 19.914062 0.105469 20.542969 0.105469 21.171875 0.0703125 C 22.921875 0.0703125 24.671875 0.0703125 26.421875 0.0351562 C 26.527344 0.0351562 26.632812 0.0351562 26.734375 0.0351562 C 26.945312 0.0351562 27.121094 -0.140625 27.191406 -0.351562 C 27.261719 -0.488281 27.15625 -0.734375 26.980469 -0.769531 C 26.734375 -0.839844 26.457031 -0.980469 26.175781 -0.980469 C 25.929688 -1.015625 25.6875 -1.121094 25.476562 -1.191406 C 25.160156 -1.292969 24.988281 -1.503906 24.847656 -1.785156 C 24.8125 -1.855469 24.777344 -1.960938 24.742188 -2.066406 C 24.355469 -3.007812 23.972656 -3.988281 23.691406 -4.96875 C 23.585938 -5.355469 23.445312 -5.703125 23.273438 -6.054688 C 23.203125 -6.230469 23.132812 -6.402344 23.097656 -6.542969 C 22.78125 -7.3125 22.464844 -8.082031 22.117188 -8.820312 C 21.941406 -9.132812 21.800781 -9.449219 21.660156 -9.761719 C 21.523438 -10.148438 21.347656 -10.5 21.242188 -10.847656 C 21.136719 -11.199219 20.960938 -11.511719 20.820312 -11.828125 C 20.820312 -11.863281 20.820312 -11.898438 20.785156 -11.933594 C 20.648438 -12.421875 20.507812 -12.878906 20.367188 -13.367188 C 20.050781 -14.382812 19.738281 -15.398438 19.28125 -16.378906 C 19.074219 -16.867188 18.863281 -17.359375 18.6875 -17.847656 C 18.652344 -18.023438 18.582031 -18.199219 18.511719 -18.335938 C 18.230469 -19.140625 17.882812 -19.945312 17.636719 -20.753906 C 17.53125 -21.101562 17.390625 -21.417969 17.253906 -21.730469 C 17.078125 -22.082031 16.972656 -22.464844 16.761719 -22.816406 C 16.585938 -23.0625 16.519531 -23.410156 16.378906 -23.65625 C 16.167969 -24.007812 15.886719 -24.214844 15.539062 -24.285156 C 15.433594 -24.285156 15.328125 -24.285156 15.222656 -24.285156 C 14.699219 -24.320312 14.207031 -24.320312 13.71875 -24.390625 C 13.542969 -24.425781 13.367188 -24.425781 13.191406 -24.425781 C 12.5625 -24.425781 11.898438 -24.460938 11.269531 -24.460938 C 11.023438 -24.460938 10.777344 -24.460938 10.535156 -24.390625 C 10.359375 -24.320312 10.183594 -24.320312 10.007812 -24.320312 C 9.589844 -24.285156 9.167969 -24.25 8.714844 -24.25 C 8.609375 -24.214844 8.503906 -24.214844 8.398438 -24.179688 C 8.363281 -24.179688 8.292969 -24.113281 8.257812 -24.078125 C 8.1875 -24.007812 8.152344 -23.832031 8.222656 -23.761719 C 8.257812 -23.726562 8.328125 -23.65625 8.363281 -23.65625 C 8.574219 -23.621094 8.820312 -23.621094 9.027344 -23.621094 C 9.34375 -23.621094 9.660156 -23.621094 9.972656 -23.621094 C 10.183594 -23.585938 10.359375 -23.410156 10.394531 -23.203125 C 10.394531 -23.0625 10.394531 -22.957031 10.394531 -22.851562 C 10.394531 -22.570312 10.324219 -22.292969 10.289062 -22.011719 C 10.183594 -21.660156 10.113281 -21.347656 10.007812 -20.996094 C 9.902344 -20.683594 9.867188 -20.367188 9.730469 -20.085938 C 9.660156 -19.773438 9.589844 -19.457031 9.519531 -19.140625 C 9.414062 -18.6875 9.273438 -18.265625 9.132812 -17.8125 C 8.921875 -17.21875 8.714844 -16.621094 8.539062 -15.992188 C 8.257812 -14.976562 7.980469 -13.964844 7.628906 -12.949219 C 7.628906 -12.878906 7.59375 -12.808594 7.59375 -12.738281 C 7.558594 -12.316406 7.382812 -11.96875 7.277344 -11.582031 C 7.140625 -11.128906 7 -10.636719 6.859375 -10.183594 C 6.71875 -9.730469 6.578125 -9.308594 6.472656 -8.855469 C 6.472656 -8.75 6.4375 -8.644531 6.402344 -8.539062 C 6.300781 -8.292969 6.230469 -8.082031 6.160156 -7.839844 C 5.597656 -6.195312 5.074219 -4.515625 4.515625 -2.871094 C 4.410156 -2.554688 4.304688 -2.203125 4.164062 -1.855469 C 4.128906 -1.714844 4.023438 -1.574219 3.882812 -1.433594 C 3.78125 -1.292969 3.640625 -1.191406 3.464844 -1.085938 Z M 11.617188 -8.644531 C 10.535156 -8.644531 9.589844 -8.644531 8.644531 -8.644531 C 8.539062 -8.644531 8.433594 -8.644531 8.328125 -8.714844 C 8.257812 -8.75 8.1875 -8.785156 8.222656 -8.855469 C 8.222656 -8.957031 8.222656 -9.097656 8.257812 -9.167969 C 8.644531 -9.972656 8.855469 -10.847656 9.0625 -11.6875 C 9.238281 -12.421875 9.449219 -13.15625 9.660156 -13.859375 C 9.972656 -14.769531 10.253906 -15.679688 10.601562 -16.550781 C 10.777344 -16.902344 10.8125 -17.289062 10.953125 -17.671875 C 11.023438 -17.917969 11.09375 -18.164062 11.164062 -18.371094 C 11.199219 -18.546875 11.269531 -18.722656 11.339844 -18.863281 C 11.476562 -19.140625 11.546875 -19.386719 11.617188 -19.667969 C 11.722656 -20.050781 11.792969 -20.4375 11.933594 -20.820312 C 11.933594 -20.855469 12.003906 -20.925781 12.074219 -20.960938 C 12.109375 -20.996094 12.179688 -20.996094 12.25 -20.890625 C 12.285156 -20.820312 12.351562 -20.71875 12.386719 -20.613281 C 12.492188 -20.367188 12.597656 -20.121094 12.667969 -19.84375 C 12.773438 -19.527344 12.84375 -19.210938 12.949219 -18.898438 C 13.054688 -18.511719 13.191406 -18.09375 13.332031 -17.707031 C 13.507812 -17.289062 13.71875 -16.867188 13.929688 -16.449219 C 14.03125 -16.203125 14.171875 -15.921875 14.277344 -15.679688 C 14.347656 -15.503906 14.453125 -15.363281 14.523438 -15.1875 C 14.699219 -14.59375 15.011719 -14.03125 15.292969 -13.4375 C 15.46875 -12.984375 15.679688 -12.5625 15.886719 -12.074219 C 15.957031 -11.898438 16.027344 -11.6875 16.097656 -11.476562 C 16.273438 -10.8125 16.550781 -10.148438 16.832031 -9.519531 C 16.902344 -9.378906 16.972656 -9.273438 17.042969 -9.132812 C 17.078125 -9.027344 17.007812 -8.921875 16.902344 -8.890625 C 16.691406 -8.890625 16.484375 -8.890625 16.273438 -8.890625 C 15.816406 -8.890625 15.363281 -8.855469 14.90625 -8.785156 C 14.769531 -8.75 14.628906 -8.75 14.488281 -8.75 C 13.472656 -8.714844 12.492188 -8.644531 11.617188 -8.644531 Z M 11.617188 -8.644531 "/></g></g></g><g fill="#f6eceb" fill-opacity="1"><g transform="translate(250.851007, 241.751029)"><g><path d="M 4.023438 -11.09375 C 4.023438 -11.09375 4.023438 -11.09375 3.988281 -11.09375 C 3.988281 -9.273438 3.988281 -7.417969 3.988281 -5.5625 C 3.953125 -4.863281 3.953125 -4.128906 3.953125 -3.429688 C 3.953125 -2.871094 3.847656 -2.308594 3.746094 -1.75 C 3.710938 -1.644531 3.640625 -1.539062 3.570312 -1.46875 C 3.464844 -1.398438 3.394531 -1.328125 3.289062 -1.292969 C 3.042969 -1.191406 2.800781 -1.050781 2.484375 -1.015625 C 2.132812 -0.945312 1.820312 -0.839844 1.46875 -0.699219 C 1.363281 -0.664062 1.226562 -0.59375 1.121094 -0.488281 C 1.015625 -0.421875 0.980469 -0.210938 1.121094 -0.140625 C 1.15625 -0.105469 1.226562 -0.0703125 1.292969 -0.0351562 C 1.433594 0 1.574219 0 1.714844 0 C 5.949219 0.0351562 10.183594 0.0703125 14.417969 0.0351562 C 15.082031 0.0351562 15.746094 0 16.449219 0 C 16.585938 0 16.726562 0 16.867188 -0.0351562 C 17.253906 -0.105469 17.636719 -0.105469 18.023438 -0.140625 C 18.40625 -0.140625 18.792969 -0.140625 19.210938 -0.175781 C 19.316406 -0.175781 19.421875 -0.175781 19.527344 -0.175781 C 19.597656 -0.210938 19.667969 -0.246094 19.703125 -0.28125 C 19.914062 -0.421875 20.085938 -0.59375 20.15625 -0.839844 C 20.296875 -1.121094 20.367188 -1.363281 20.367188 -1.679688 C 20.367188 -2.765625 20.402344 -3.882812 20.402344 -4.96875 C 20.402344 -5.25 20.402344 -5.527344 20.402344 -5.84375 C 20.402344 -5.949219 20.367188 -6.054688 20.367188 -6.160156 C 20.332031 -6.195312 20.191406 -6.335938 20.121094 -6.335938 C 19.945312 -6.402344 19.773438 -6.335938 19.632812 -6.195312 C 19.527344 -6.089844 19.421875 -5.914062 19.351562 -5.773438 C 19.175781 -5.179688 18.898438 -4.65625 18.652344 -4.09375 C 18.40625 -3.429688 18.09375 -2.800781 17.707031 -2.167969 C 17.496094 -1.820312 17.183594 -1.539062 16.726562 -1.398438 C 16.378906 -1.292969 16.0625 -1.226562 15.710938 -1.121094 C 15.539062 -1.050781 15.363281 -1.085938 15.1875 -1.121094 C 15.082031 -1.15625 14.976562 -1.15625 14.871094 -1.121094 C 14.699219 -1.085938 14.523438 -1.050781 14.347656 -1.050781 C 13.789062 -1.050781 13.191406 -1.050781 12.632812 -1.121094 C 12.285156 -1.15625 11.933594 -1.15625 11.582031 -1.191406 C 11.058594 -1.191406 10.5 -1.191406 9.972656 -1.226562 C 9.695312 -1.226562 9.449219 -1.363281 9.203125 -1.539062 C 9.132812 -1.574219 9.0625 -1.679688 9.0625 -1.785156 C 9.027344 -1.855469 9.027344 -1.960938 9.027344 -2.03125 C 9.027344 -3.21875 8.992188 -4.445312 9.027344 -5.632812 C 9.0625 -7.3125 9.097656 -8.992188 9.0625 -10.636719 C 9.0625 -11.828125 9.0625 -12.984375 9.0625 -14.171875 C 9.0625 -16.097656 9.0625 -18.023438 9.0625 -19.914062 C 9.0625 -20.613281 9.097656 -21.277344 9.097656 -21.941406 C 9.097656 -22.292969 9.203125 -22.640625 9.308594 -22.992188 C 9.34375 -23.0625 9.378906 -23.132812 9.414062 -23.167969 C 9.589844 -23.375 9.796875 -23.515625 10.042969 -23.585938 C 10.429688 -23.726562 10.847656 -23.796875 11.269531 -23.902344 C 11.375 -23.9375 11.445312 -24.179688 11.375 -24.285156 C 11.339844 -24.355469 11.269531 -24.425781 11.164062 -24.460938 C 11.023438 -24.460938 10.847656 -24.496094 10.707031 -24.496094 C 7.980469 -24.496094 5.25 -24.496094 2.519531 -24.496094 C 2.414062 -24.496094 2.308594 -24.496094 2.203125 -24.460938 C 2.066406 -24.460938 1.925781 -24.390625 1.820312 -24.285156 C 1.785156 -24.214844 1.75 -24.179688 1.714844 -24.113281 C 1.714844 -24.007812 1.820312 -23.902344 1.925781 -23.867188 C 2.132812 -23.832031 2.34375 -23.832031 2.554688 -23.761719 C 2.800781 -23.726562 3.042969 -23.65625 3.289062 -23.621094 C 3.5 -23.550781 3.675781 -23.445312 3.847656 -23.308594 C 3.882812 -23.273438 3.917969 -23.203125 3.953125 -23.132812 C 3.988281 -23.027344 3.988281 -22.921875 3.988281 -22.816406 C 3.988281 -22.082031 3.988281 -21.347656 3.988281 -20.578125 C 3.988281 -20.226562 3.988281 -19.878906 4.058594 -19.527344 C 4.128906 -19.28125 4.128906 -19.039062 4.128906 -18.792969 C 4.09375 -17.183594 4.09375 -15.574219 4.09375 -13.964844 C 4.09375 -13.71875 4.09375 -13.472656 4.058594 -13.226562 C 4.023438 -12.949219 4.023438 -12.667969 4.023438 -12.386719 C 4.023438 -11.96875 4.023438 -11.546875 4.023438 -11.09375 Z M 4.023438 -11.09375 "/></g></g></g><g fill="#f6eceb" fill-opacity="1"><g transform="translate(75.153962, 267.067307)"><g><path d="M 6.585938 -7.742188 C 6.058594 -5.683594 5.101562 -2.738281 4.507812 -0.957031 C 3.761719 -3.066406 2.769531 -6.476562 2.460938 -7.972656 L 1.683594 -7.742188 C 1.285156 -5.15625 0.503906 -1 0.152344 0.0546875 L 0.660156 0 C 0.835938 -1.285156 1.40625 -5.070312 1.890625 -7.148438 C 2.320312 -6.15625 3.640625 -1.417969 3.945312 0.132812 L 4.628906 -0.078125 C 5.003906 -1.605469 6.058594 -5.246094 6.761719 -7.136719 C 7.070312 -6.125 7.839844 -1.375 7.972656 0.121094 L 8.882812 -0.0117188 C 8.3125 -1.914062 7.652344 -6.203125 7.386719 -7.972656 Z M 6.585938 -7.742188 "/></g></g></g><g fill="#f6eceb" fill-opacity="1"><g transform="translate(89.755579, 267.067307)"><g><path d="M 8.125 -3.847656 C 8.125 -6.609375 6.179688 -8.046875 4.320312 -8.046875 C 2.847656 -8.046875 0.441406 -7.113281 0.441406 -3.835938 C 0.441406 -1.332031 2.308594 0.207031 4.320312 0.207031 C 6.257812 0.207031 8.125 -1.121094 8.125 -3.847656 Z M 1.308594 -4.089844 C 1.308594 -5.96875 2.222656 -7.863281 4.234375 -7.863281 C 6.433594 -7.863281 7.257812 -5.683594 7.257812 -3.574219 C 7.257812 -1.769531 6.476562 0.0117188 4.34375 0.0117188 C 2.078125 0.0117188 1.308594 -2.144531 1.308594 -4.089844 Z M 1.308594 -4.089844 "/></g></g></g><g fill="#f6eceb" fill-opacity="1"><g transform="translate(103.829578, 267.067307)"><g><path d="M 2.210938 -4.125 C 2.460938 -4.113281 2.660156 -4.101562 2.878906 -4.058594 C 4.199219 -3.804688 4.992188 -1.769531 5.265625 0.078125 L 6.222656 -0.03125 C 5.804688 -1.40625 5.144531 -3.660156 3.253906 -4.144531 C 4.5625 -4.308594 5.15625 -5.070312 5.15625 -6.035156 C 5.15625 -7.191406 4.421875 -7.960938 2.398438 -7.960938 C 1.945312 -7.960938 1.417969 -7.917969 0.835938 -7.839844 C 0.902344 -6.71875 0.921875 -5.070312 0.921875 -3.550781 C 0.921875 -2.023438 0.902344 -0.625 0.859375 0 L 1.628906 0 C 1.582031 -0.757812 1.5625 -2.175781 1.5625 -3.640625 C 1.5625 -5.113281 1.582031 -6.640625 1.628906 -7.652344 C 1.96875 -7.71875 2.285156 -7.742188 2.5625 -7.742188 C 3.804688 -7.742188 4.410156 -7.136719 4.410156 -6.015625 C 4.410156 -5.246094 4.1875 -4.253906 2.78125 -4.253906 C 2.605469 -4.253906 2.40625 -4.277344 2.199219 -4.308594 Z M 2.210938 -4.125 "/></g></g></g><g fill="#f6eceb" fill-opacity="1"><g transform="translate(115.78207, 267.067307)"><g><path d="M 0.273438 -7.386719 C 0.617188 -7.566406 1.339844 -7.640625 2.121094 -7.640625 C 2.144531 -6.089844 2.164062 -4.847656 2.164062 -3.617188 C 2.164062 -2.472656 2.15625 -1.339844 2.109375 0 L 2.859375 0 C 2.804688 -1.308594 2.78125 -2.417969 2.78125 -3.539062 C 2.78125 -4.804688 2.804688 -6.070312 2.835938 -7.640625 C 3.640625 -7.640625 4.507812 -7.519531 4.847656 -7.386719 L 4.804688 -7.863281 C 4.421875 -7.839844 3.484375 -7.816406 2.550781 -7.816406 C 1.628906 -7.816406 0.703125 -7.839844 0.339844 -7.882812 Z M 0.273438 -7.386719 "/></g></g></g><g fill="#f6eceb" fill-opacity="1"><g transform="translate(126.382525, 267.067307)"><g><path d="M 4.859375 -4.484375 L 4.804688 -4.222656 C 5.234375 -4.234375 5.664062 -4.242188 6.101562 -4.242188 C 6.136719 -3.828125 6.144531 -3.089844 6.144531 -2.296875 C 6.144531 -1.660156 6.136719 -0.980469 6.113281 -0.429688 C 5.773438 -0.175781 5.265625 -0.0117188 4.519531 -0.0117188 C 2.804688 -0.0117188 1.253906 -1.417969 1.253906 -4.078125 C 1.253906 -6.851562 2.640625 -7.882812 4.398438 -7.882812 C 5.320312 -7.882812 5.871094 -7.453125 6.277344 -6.949219 L 6.597656 -7.507812 C 6.058594 -7.839844 5.289062 -8.070312 4.398438 -8.070312 C 3.925781 -8.070312 0.441406 -8.046875 0.441406 -3.816406 C 0.441406 -1.351562 2.121094 0.199219 4.332031 0.199219 C 5.113281 0.199219 5.574219 0.109375 6.191406 -0.0976562 C 6.246094 -0.109375 6.289062 -0.121094 6.332031 -0.121094 C 6.453125 -0.121094 6.628906 -0.0429688 6.804688 0 C 6.761719 -0.5625 6.738281 -1.363281 6.738281 -2.144531 C 6.738281 -2.980469 6.761719 -3.792969 6.792969 -4.234375 C 6.914062 -4.234375 7.035156 -4.222656 7.15625 -4.222656 L 7.210938 -4.464844 C 6.851562 -4.441406 6.476562 -4.421875 6.113281 -4.421875 C 5.683594 -4.421875 5.265625 -4.441406 4.859375 -4.484375 Z M 4.859375 -4.484375 "/></g></g></g><g fill="#f6eceb" fill-opacity="1"><g transform="translate(139.621107, 267.067307)"><g><path d="M 3.054688 -7.742188 C 2.132812 -5.15625 0.417969 -0.792969 -0.078125 0.0664062 L 0.449219 0 C 0.625 -0.683594 1.15625 -2.089844 1.738281 -3.585938 C 2.164062 -3.605469 2.816406 -3.617188 3.441406 -3.617188 C 3.890625 -3.617188 4.332031 -3.605469 4.671875 -3.59375 C 5.199219 -2.101562 5.695312 -0.625 5.925781 0.078125 L 6.914062 0 C 6.035156 -1.859375 4.332031 -6.035156 3.714844 -7.972656 Z M 3.15625 -7.246094 C 3.472656 -6.75 4.058594 -5.300781 4.585938 -3.816406 C 4.234375 -3.804688 3.792969 -3.792969 3.351562 -3.792969 C 2.78125 -3.792969 2.210938 -3.804688 1.824219 -3.835938 C 2.296875 -5.070312 2.792969 -6.3125 3.15625 -7.246094 Z M 3.15625 -7.246094 "/></g></g></g><g fill="#f6eceb" fill-opacity="1"><g transform="translate(152.101231, 267.067307)"><g><path d="M 4.859375 -4.484375 L 4.804688 -4.222656 C 5.234375 -4.234375 5.664062 -4.242188 6.101562 -4.242188 C 6.136719 -3.828125 6.144531 -3.089844 6.144531 -2.296875 C 6.144531 -1.660156 6.136719 -0.980469 6.113281 -0.429688 C 5.773438 -0.175781 5.265625 -0.0117188 4.519531 -0.0117188 C 2.804688 -0.0117188 1.253906 -1.417969 1.253906 -4.078125 C 1.253906 -6.851562 2.640625 -7.882812 4.398438 -7.882812 C 5.320312 -7.882812 5.871094 -7.453125 6.277344 -6.949219 L 6.597656 -7.507812 C 6.058594 -7.839844 5.289062 -8.070312 4.398438 -8.070312 C 3.925781 -8.070312 0.441406 -8.046875 0.441406 -3.816406 C 0.441406 -1.351562 2.121094 0.199219 4.332031 0.199219 C 5.113281 0.199219 5.574219 0.109375 6.191406 -0.0976562 C 6.246094 -0.109375 6.289062 -0.121094 6.332031 -0.121094 C 6.453125 -0.121094 6.628906 -0.0429688 6.804688 0 C 6.761719 -0.5625 6.738281 -1.363281 6.738281 -2.144531 C 6.738281 -2.980469 6.761719 -3.792969 6.792969 -4.234375 C 6.914062 -4.234375 7.035156 -4.222656 7.15625 -4.222656 L 7.210938 -4.464844 C 6.851562 -4.441406 6.476562 -4.421875 6.113281 -4.421875 C 5.683594 -4.421875 5.265625 -4.441406 4.859375 -4.484375 Z M 4.859375 -4.484375 "/></g></g></g><g fill="#f6eceb" fill-opacity="1"><g transform="translate(165.339813, 267.067307)"><g><path d="M 1.59375 -4.035156 C 1.871094 -4.046875 2.15625 -4.046875 2.429688 -4.046875 C 3.023438 -4.046875 3.617188 -4.023438 4.210938 -3.992188 L 4.300781 -4.363281 C 3.59375 -4.300781 2.890625 -4.265625 2.199219 -4.265625 C 2 -4.265625 1.792969 -4.265625 1.59375 -4.277344 C 1.59375 -5.496094 1.617188 -6.707031 1.648438 -7.628906 C 2.011719 -7.640625 2.351562 -7.640625 2.683594 -7.640625 C 3.507812 -7.640625 4.265625 -7.597656 5.035156 -7.410156 L 5.003906 -7.863281 C 4.398438 -7.851562 3.835938 -7.839844 0.835938 -7.839844 C 0.902344 -6.738281 0.933594 -5.058594 0.933594 -3.519531 C 0.933594 -1.96875 0.902344 -0.550781 0.835938 0 C 3.890625 0 4.476562 0.0117188 5.078125 0.0234375 L 5.199219 -0.40625 C 4.441406 -0.230469 3.660156 -0.1875 2.824219 -0.1875 C 2.441406 -0.1875 2.054688 -0.199219 1.648438 -0.207031 C 1.617188 -0.933594 1.59375 -2.046875 1.59375 -3.265625 C 1.59375 -3.519531 1.59375 -3.769531 1.59375 -4.035156 Z M 1.59375 -4.035156 "/></g></g></g><g fill="#f6eceb" fill-opacity="1"><g transform="translate(176.335976, 267.067307)"><g/></g></g><g fill="#f6eceb" fill-opacity="1"><g transform="translate(185.25462, 267.067307)"><g><path d="M 6.597656 -7.507812 C 6.046875 -7.839844 5.289062 -8.070312 4.386719 -8.070312 C 3.210938 -8.070312 0.441406 -7.609375 0.441406 -3.816406 C 0.441406 -1.351562 2.121094 0.199219 4.332031 0.199219 C 5.355469 0.199219 6.035156 0 6.433594 -0.207031 L 6.265625 -0.570312 C 5.960938 -0.230469 5.398438 -0.0117188 4.519531 -0.0117188 C 2.804688 -0.0117188 1.296875 -1.417969 1.296875 -4.078125 C 1.296875 -6.839844 2.640625 -7.871094 4.386719 -7.871094 C 5.320312 -7.871094 5.871094 -7.453125 6.277344 -6.949219 Z M 6.597656 -7.507812 "/></g></g></g><g fill="#f6eceb" fill-opacity="1"><g transform="translate(197.690776, 267.067307)"><g><path d="M 3.054688 -7.742188 C 2.132812 -5.15625 0.417969 -0.792969 -0.078125 0.0664062 L 0.449219 0 C 0.625 -0.683594 1.15625 -2.089844 1.738281 -3.585938 C 2.164062 -3.605469 2.816406 -3.617188 3.441406 -3.617188 C 3.890625 -3.617188 4.332031 -3.605469 4.671875 -3.59375 C 5.199219 -2.101562 5.695312 -0.625 5.925781 0.078125 L 6.914062 0 C 6.035156 -1.859375 4.332031 -6.035156 3.714844 -7.972656 Z M 3.15625 -7.246094 C 3.472656 -6.75 4.058594 -5.300781 4.585938 -3.816406 C 4.234375 -3.804688 3.792969 -3.792969 3.351562 -3.792969 C 2.78125 -3.792969 2.210938 -3.804688 1.824219 -3.835938 C 2.296875 -5.070312 2.792969 -6.3125 3.15625 -7.246094 Z M 3.15625 -7.246094 "/></g></g></g><g fill="#f6eceb" fill-opacity="1"><g transform="translate(210.170901, 267.067307)"><g><path d="M 0.835938 0 C 1.59375 0 2.1875 0 2.703125 0 C 3.472656 0 4.066406 0 4.792969 0.0234375 L 4.914062 -0.449219 C 4.066406 -0.242188 3.320312 -0.1875 2.429688 -0.1875 C 2.1875 -0.1875 1.925781 -0.1875 1.648438 -0.199219 C 1.605469 -0.988281 1.582031 -2.253906 1.582031 -3.59375 C 1.582031 -5.125 1.617188 -6.730469 1.660156 -7.839844 L 0.835938 -7.839844 C 0.902344 -6.738281 0.933594 -5.058594 0.933594 -3.519531 C 0.933594 -1.96875 0.902344 -0.550781 0.835938 0 Z M 0.835938 0 "/></g></g></g><g fill="#f6eceb" fill-opacity="1"><g transform="translate(220.71639, 267.067307)"><g><path d="M 6.597656 -7.507812 C 6.046875 -7.839844 5.289062 -8.070312 4.386719 -8.070312 C 3.210938 -8.070312 0.441406 -7.609375 0.441406 -3.816406 C 0.441406 -1.351562 2.121094 0.199219 4.332031 0.199219 C 5.355469 0.199219 6.035156 0 6.433594 -0.207031 L 6.265625 -0.570312 C 5.960938 -0.230469 5.398438 -0.0117188 4.519531 -0.0117188 C 2.804688 -0.0117188 1.296875 -1.417969 1.296875 -4.078125 C 1.296875 -6.839844 2.640625 -7.871094 4.386719 -7.871094 C 5.320312 -7.871094 5.871094 -7.453125 6.277344 -6.949219 Z M 6.597656 -7.507812 "/></g></g></g><g fill="#f6eceb" fill-opacity="1"><g transform="translate(233.152547, 267.067307)"><g><path d="M 5.960938 -7.839844 C 6.046875 -7.058594 6.058594 -5.628906 6.058594 -4.265625 C 6.058594 -3.761719 6.058594 -3.277344 6.058594 -2.835938 C 6.058594 -1.1875 5.179688 0 3.828125 0 C 2.199219 0 1.441406 -1.277344 1.441406 -2.902344 C 1.441406 -4.585938 1.429688 -6.167969 1.574219 -7.839844 L 0.703125 -7.839844 C 0.757812 -7.421875 0.78125 -6.695312 0.78125 -5.871094 C 0.78125 -4.96875 0.757812 -3.957031 0.757812 -3.101562 C 0.757812 -0.738281 2.046875 0.207031 3.574219 0.207031 C 5.15625 0.207031 6.300781 -0.703125 6.300781 -3.066406 C 6.300781 -4.640625 6.289062 -7.003906 6.378906 -7.839844 Z M 5.960938 -7.839844 "/></g></g></g><g fill="#f6eceb" fill-opacity="1"><g transform="translate(245.687626, 267.067307)"><g><path d="M 0.835938 0 C 1.59375 0 2.1875 0 2.703125 0 C 3.472656 0 4.066406 0 4.792969 0.0234375 L 4.914062 -0.449219 C 4.066406 -0.242188 3.320312 -0.1875 2.429688 -0.1875 C 2.1875 -0.1875 1.925781 -0.1875 1.648438 -0.199219 C 1.605469 -0.988281 1.582031 -2.253906 1.582031 -3.59375 C 1.582031 -5.125 1.617188 -6.730469 1.660156 -7.839844 L 0.835938 -7.839844 C 0.902344 -6.738281 0.933594 -5.058594 0.933594 -3.519531 C 0.933594 -1.96875 0.902344 -0.550781 0.835938 0 Z M 0.835938 0 "/></g></g></g><g fill="#f6eceb" fill-opacity="1"><g transform="translate(256.233115, 267.067307)"><g><path d="M 3.054688 -7.742188 C 2.132812 -5.15625 0.417969 -0.792969 -0.078125 0.0664062 L 0.449219 0 C 0.625 -0.683594 1.15625 -2.089844 1.738281 -3.585938 C 2.164062 -3.605469 2.816406 -3.617188 3.441406 -3.617188 C 3.890625 -3.617188 4.332031 -3.605469 4.671875 -3.59375 C 5.199219 -2.101562 5.695312 -0.625 5.925781 0.078125 L 6.914062 0 C 6.035156 -1.859375 4.332031 -6.035156 3.714844 -7.972656 Z M 3.15625 -7.246094 C 3.472656 -6.75 4.058594 -5.300781 4.585938 -3.816406 C 4.234375 -3.804688 3.792969 -3.792969 3.351562 -3.792969 C 2.78125 -3.792969 2.210938 -3.804688 1.824219 -3.835938 C 2.296875 -5.070312 2.792969 -6.3125 3.15625 -7.246094 Z M 3.15625 -7.246094 "/></g></g></g><g fill="#f6eceb" fill-opacity="1"><g transform="translate(268.713229, 267.067307)"><g><path d="M 0.273438 -7.386719 C 0.617188 -7.566406 1.339844 -7.640625 2.121094 -7.640625 C 2.144531 -6.089844 2.164062 -4.847656 2.164062 -3.617188 C 2.164062 -2.472656 2.15625 -1.339844 2.109375 0 L 2.859375 0 C 2.804688 -1.308594 2.78125 -2.417969 2.78125 -3.539062 C 2.78125 -4.804688 2.804688 -6.070312 2.835938 -7.640625 C 3.640625 -7.640625 4.507812 -7.519531 4.847656 -7.386719 L 4.804688 -7.863281 C 4.421875 -7.839844 3.484375 -7.816406 2.550781 -7.816406 C 1.628906 -7.816406 0.703125 -7.839844 0.339844 -7.882812 Z M 0.273438 -7.386719 "/></g></g></g><g fill="#f6eceb" fill-opacity="1"><g transform="translate(279.313684, 267.067307)"><g><path d="M 8.125 -3.847656 C 8.125 -6.609375 6.179688 -8.046875 4.320312 -8.046875 C 2.847656 -8.046875 0.441406 -7.113281 0.441406 -3.835938 C 0.441406 -1.332031 2.308594 0.207031 4.320312 0.207031 C 6.257812 0.207031 8.125 -1.121094 8.125 -3.847656 Z M 1.308594 -4.089844 C 1.308594 -5.96875 2.222656 -7.863281 4.234375 -7.863281 C 6.433594 -7.863281 7.257812 -5.683594 7.257812 -3.574219 C 7.257812 -1.769531 6.476562 0.0117188 4.34375 0.0117188 C 2.078125 0.0117188 1.308594 -2.144531 1.308594 -4.089844 Z M 1.308594 -4.089844 "/></g></g></g><g fill="#f6eceb" fill-opacity="1"><g transform="translate(293.387673, 267.067307)"><g><path d="M 2.210938 -4.125 C 2.460938 -4.113281 2.660156 -4.101562 2.878906 -4.058594 C 4.199219 -3.804688 4.992188 -1.769531 5.265625 0.078125 L 6.222656 -0.03125 C 5.804688 -1.40625 5.144531 -3.660156 3.253906 -4.144531 C 4.5625 -4.308594 5.15625 -5.070312 5.15625 -6.035156 C 5.15625 -7.191406 4.421875 -7.960938 2.398438 -7.960938 C 1.945312 -7.960938 1.417969 -7.917969 0.835938 -7.839844 C 0.902344 -6.71875 0.921875 -5.070312 0.921875 -3.550781 C 0.921875 -2.023438 0.902344 -0.625 0.859375 0 L 1.628906 0 C 1.582031 -0.757812 1.5625 -2.175781 1.5625 -3.640625 C 1.5625 -5.113281 1.582031 -6.640625 1.628906 -7.652344 C 1.96875 -7.71875 2.285156 -7.742188 2.5625 -7.742188 C 3.804688 -7.742188 4.410156 -7.136719 4.410156 -6.015625 C 4.410156 -5.246094 4.1875 -4.253906 2.78125 -4.253906 C 2.605469 -4.253906 2.40625 -4.277344 2.199219 -4.308594 Z M 2.210938 -4.125 "/></g></g></g></svg>